<svg width="32" height="32" viewBox="3 3 32 32" fill="none" xmlns="http://www.w3.org/2000/svg">
<circle cx="19" cy="19" r="19" fill="transparent"/>
<g opacity="1">
<path d="M23 14C23 16.209 21.211 18 19 18C16.791 18 15 16.209 15 14C15 11.791 16.791 10 19 10C21.211 10 23 11.791 23 14Z" stroke="#94d1be" stroke-width="2"/>
<path d="M11 27C11.091 25.7998 11.272 25.1708 11.51 24.5491C11.857 23.6465 12.364 22.924 13.043 22.4031C14.455 21.3205 16.506 21 18.999 21C21.492 21 23.544 21.2929 24.957 22.3779C25.635 22.8988 26.145 23.6501 26.488 24.5527C26.728 25.178 26.91 25.7998 27 27H11Z" stroke="#94d1be" stroke-width="2"/>
</g>
</svg>
