<svg width="32" height="32" viewBox="0 0 32 32" fill="none" xmlns="http://www.w3.org/2000/svg">
<g opacity="1">
<path d="M24.191 17.928L23.229 17.365C22.184 16.723 22.184 15.197 23.229 14.554L24.191 13.992C24.994 13.51 25.235 12.547 24.753 11.824L23.952 10.459C23.471 9.65604 22.505 9.41604 21.782 9.89704L20.82 10.459C19.775 11.101 18.409 10.297 18.409 9.09304V7.97004C18.409 7.08704 17.687 6.36304 16.805 6.36304H15.197C14.315 6.36304 13.592 7.08704 13.592 7.97004V9.01404C13.592 10.218 12.228 11.021 11.183 10.379L10.22 9.89704C9.41601 9.41504 8.45301 9.73604 8.05001 10.459L7.24601 11.824C6.84701 12.628 7.08601 13.591 7.80901 14.073L8.77401 14.635C9.81601 15.197 9.81601 16.803 8.77401 17.365L7.80901 17.928C7.00801 18.41 6.76501 19.374 7.24601 20.096L8.05001 21.461C8.53201 22.266 9.49701 22.506 10.22 22.024L11.183 21.543C12.227 20.9 13.592 21.704 13.592 22.908V24.032C13.592 24.915 14.316 25.638 15.197 25.638H16.804C17.687 25.638 18.408 24.914 18.408 24.032V22.987C18.408 21.783 19.775 20.98 20.819 21.623L21.781 22.185C22.585 22.667 23.547 22.346 23.951 21.623L24.752 20.258C25.155 19.374 24.914 18.41 24.191 17.928Z" stroke="#94d1be" stroke-width="2" stroke-miterlimit="10"/>
<path d="M16 18.5C14.625 18.5 13.5 17.375 13.5 16.001C13.5 14.627 14.625 13.502 16 13.502C17.375 13.502 18.5 14.627 18.5 16.001C18.5 17.375 17.375 18.5 16 18.5Z" stroke="#94d1be" stroke-width="2" stroke-miterlimit="10"/>
</g>
</svg>
